<svg width="32" height="32" viewBox="0 0 32 32" fill="none" xmlns="http://www.w3.org/2000/svg">
<g clip-path="url(#clip0_1_2)" filter="url(#filter0_b_1_2)">
<path d="M25 0.5H7C3.41015 0.5 0.5 3.41015 0.5 7V25C0.5 28.5899 3.41015 31.5 7 31.5H25C28.5899 31.5 31.5 28.5899 31.5 25V7C31.5 3.41015 28.5899 0.5 25 0.5Z" fill="white" stroke="#F8F8F8"/>
<g clip-path="url(#clip1_1_2)">
<path d="M19.0669 10C20.1529 10 21.0651 10.3759 21.8035 11.1276C22.5419 11.8793 22.9112 12.7968 22.9112 13.8801C22.9112 14.4107 22.8026 14.9469 22.5854 15.4885C22.3682 16.0302 22.1293 16.5111 21.8687 16.9311C21.608 17.3512 21.1682 17.8928 20.5492 18.5561C19.9302 19.2194 19.4089 19.7555 18.9854 20.1646C18.5619 20.5736 17.8832 21.1981 16.9493 22.0383L15.9393 22.9668L14.9294 22.0715C14.0171 21.2092 13.3438 20.5736 12.9095 20.1646C12.4751 19.7555 11.9484 19.2194 11.3294 18.5561C10.7104 17.8928 10.2706 17.3512 10.0099 16.9311C9.74931 16.5111 9.51583 16.0302 9.3095 15.4885C9.10317 14.9469 9 14.4107 9 13.8801C9 12.7968 9.36923 11.8793 10.1077 11.1276C10.8461 10.3759 11.7475 10 12.8117 10C14.0714 10 15.114 10.4974 15.9393 11.4923C16.7646 10.4974 17.8071 10 19.0669 10ZM16.0045 21.0102C17.0687 20.0374 17.8451 19.3133 18.3339 18.838C18.8225 18.3627 19.3601 17.7934 19.9465 17.1301C20.5329 16.4668 20.9401 15.8865 21.1682 15.389C21.3963 14.8916 21.5103 14.3886 21.5103 13.8801C21.5103 13.1726 21.2768 12.5867 20.8099 12.1224C20.3429 11.6582 19.7619 11.426 19.0669 11.426C18.5456 11.426 18.0515 11.5808 17.5845 11.8903C17.1176 12.1998 16.7863 12.5978 16.5909 13.0842H15.2877C15.114 12.5978 14.7936 12.1998 14.3266 11.8903C13.8597 11.5808 13.3547 11.426 12.8117 11.426C12.1167 11.426 11.5412 11.6582 11.085 12.1224C10.6289 12.5867 10.4009 13.1726 10.4009 13.8801C10.4009 14.3886 10.5095 14.8916 10.7267 15.389C10.9439 15.8865 11.3511 16.4668 11.9484 17.1301C12.5457 17.7934 13.0886 18.3627 13.5773 18.838C14.066 19.3133 14.8316 20.0374 15.8741 21.0102L15.9393 21.0765L16.0045 21.0102Z" fill="#ECECEC"/>
</g>
</g>
<defs>
<filter id="filter0_b_1_2" x="-4" y="-4" width="40" height="40" filterUnits="userSpaceOnUse" color-interpolation-filters="sRGB">
<feFlood flood-opacity="0" result="BackgroundImageFix"/>
<feGaussianBlur in="BackgroundImageFix" stdDeviation="2"/>
<feComposite in2="SourceAlpha" operator="in" result="effect1_backgroundBlur_1_2"/>
<feBlend mode="normal" in="SourceGraphic" in2="effect1_backgroundBlur_1_2" result="shape"/>
</filter>
<clipPath id="clip0_1_2">
<rect width="32" height="32" fill="white"/>
</clipPath>
<clipPath id="clip1_1_2">
<rect width="14" height="13" fill="white" transform="translate(9 10)"/>
</clipPath>
</defs>
</svg>
